<svg width="304" height="63" viewBox="0 0 304 63" fill="none" xmlns="http://www.w3.org/2000/svg">
<circle cx="31.5" cy="31.5" r="30.75" stroke="#004987" stroke-width="1.5"/>
<circle cx="272.5" cy="31.5" r="30" stroke="#004987" stroke-width="3"/>
<line x1="63" y1="31.5" x2="241" y2="31.5" stroke="#004987"/>
<path d="M32.46 39.3L34.14 39.72V40H28.4V39.72L30.08 39.3V21.52H27.28V21.1L32.46 19.98V39.3Z" fill="#004987"/>
<path d="M270.6 20.4C270.077 20.4 269.573 20.512 269.088 20.736C268.603 20.96 268.164 21.268 267.772 21.66C267.399 22.0333 267.1 22.4627 266.876 22.948C266.652 23.4333 266.54 23.9373 266.54 24.46C266.54 24.9453 266.727 25.3467 267.1 25.664C267.492 25.9813 268.145 26.14 269.06 26.14L269.62 28.38C269.545 28.4173 269.461 28.4453 269.368 28.464C269.275 28.4827 269.172 28.5013 269.06 28.52C268.967 28.52 268.873 28.52 268.78 28.52C267.996 28.52 267.333 28.212 266.792 27.596C266.251 26.9613 265.98 26.0093 265.98 24.74C265.98 24.068 266.111 23.4427 266.372 22.864C266.633 22.2667 266.988 21.744 267.436 21.296C267.884 20.848 268.397 20.4933 268.976 20.232C269.573 19.9707 270.208 19.84 270.88 19.84C271.757 19.84 272.56 19.9893 273.288 20.288C274.035 20.5867 274.669 20.9973 275.192 21.52C275.733 22.024 276.153 22.6307 276.452 23.34C276.751 24.0307 276.9 24.7773 276.9 25.58C276.9 26.3453 276.741 27.1387 276.424 27.96C276.107 28.7627 275.677 29.5653 275.136 30.368C274.613 31.1707 274.016 31.9547 273.344 32.72C272.672 33.4853 271.981 34.204 271.272 34.876C270.563 35.548 269.872 36.1733 269.2 36.752C268.528 37.312 267.921 37.788 267.38 38.18H276.2L276.76 35.52H277.18V40H264.86C266.148 38.6 267.361 37.2933 268.5 36.08C269.639 34.8667 270.628 33.6907 271.468 32.552C272.327 31.3947 272.999 30.256 273.484 29.136C273.988 27.9973 274.24 26.812 274.24 25.58C274.24 24.6653 274.147 23.8813 273.96 23.228C273.773 22.5747 273.521 22.0427 273.204 21.632C272.887 21.2027 272.504 20.8947 272.056 20.708C271.608 20.5027 271.123 20.4 270.6 20.4Z" fill="#004987"/>
<path d="M269.088 20.736L269.298 21.19H269.298L269.088 20.736ZM267.772 21.66L268.126 22.0136L268.126 22.0136L267.772 21.66ZM266.876 22.948L266.422 22.7385V22.7385L266.876 22.948ZM267.1 25.664L266.776 26.0451L266.785 26.0526L267.1 25.664ZM269.06 26.14L269.545 26.0187L269.45 25.64H269.06V26.14ZM269.62 28.38L269.844 28.8272L270.202 28.6478L270.105 28.2587L269.62 28.38ZM269.368 28.464L269.27 27.9737L269.27 27.9737L269.368 28.464ZM269.06 28.52V29.02H269.101L269.142 29.0132L269.06 28.52ZM266.792 27.596L266.412 27.9205L266.416 27.9261L266.792 27.596ZM266.372 22.864L266.828 23.0698L266.83 23.0644L266.372 22.864ZM268.976 20.232L268.776 19.7739L268.77 19.7763L268.976 20.232ZM273.288 20.288L273.098 20.7506L273.102 20.7522L273.288 20.288ZM275.192 21.52L274.838 21.8736L274.845 21.8799L274.851 21.8859L275.192 21.52ZM276.452 23.34L275.991 23.534L275.993 23.5385L276.452 23.34ZM276.424 27.96L276.889 28.1438L276.89 28.1402L276.424 27.96ZM275.136 30.368L274.721 30.0884L274.717 30.0952L275.136 30.368ZM273.344 32.72L272.968 32.3901H272.968L273.344 32.72ZM271.272 34.876L270.928 34.513L271.272 34.876ZM269.2 36.752L269.52 37.1362L269.526 37.1309L269.2 36.752ZM267.38 38.18L267.087 37.775L265.837 38.68H267.38V38.18ZM276.2 38.18V38.68H276.606L276.689 38.283L276.2 38.18ZM276.76 35.52V35.02H276.354L276.271 35.417L276.76 35.52ZM277.18 35.52H277.68V35.02H277.18V35.52ZM277.18 40V40.5H277.68V40H277.18ZM264.86 40L264.492 39.6615L263.721 40.5H264.86V40ZM268.5 36.08L268.865 36.4222L268.5 36.08ZM271.468 32.552L271.066 32.2541L271.066 32.2552L271.468 32.552ZM273.484 29.136L273.027 28.9336L273.025 28.9372L273.484 29.136ZM273.96 23.228L274.441 23.0906L273.96 23.228ZM273.204 21.632L272.802 21.9293L272.808 21.9377L273.204 21.632ZM272.056 20.708L271.848 21.1625L271.856 21.1662L271.864 21.1695L272.056 20.708ZM270.6 19.9C270.003 19.9 269.428 20.0284 268.878 20.282L269.298 21.19C269.719 20.9956 270.151 20.9 270.6 20.9V19.9ZM268.878 20.282C268.338 20.5317 267.851 20.8743 267.418 21.3064L268.126 22.0136C268.477 21.6617 268.868 21.3883 269.298 21.19L268.878 20.282ZM267.418 21.3064C267.003 21.722 266.67 22.2003 266.422 22.7385L267.33 23.1575C267.53 22.7251 267.794 22.3447 268.126 22.0136L267.418 21.3064ZM266.422 22.7385C266.168 23.288 266.04 23.8633 266.04 24.46H267.04C267.04 24.0114 267.136 23.5787 267.33 23.1575L266.422 22.7385ZM266.04 24.46C266.04 25.0936 266.292 25.6337 266.776 26.045L267.424 25.283C267.161 25.0596 267.04 24.797 267.04 24.46H266.04ZM266.785 26.0526C267.314 26.4808 268.113 26.64 269.06 26.64V25.64C268.177 25.64 267.67 25.4819 267.415 25.2754L266.785 26.0526ZM268.575 26.2613L269.135 28.5013L270.105 28.2587L269.545 26.0187L268.575 26.2613ZM269.396 27.9328C269.367 27.9477 269.326 27.9626 269.27 27.9737L269.466 28.9543C269.597 28.9281 269.724 28.887 269.844 28.8272L269.396 27.9328ZM269.27 27.9737C269.183 27.9911 269.085 28.0089 268.978 28.0268L269.142 29.0132C269.259 28.9938 269.367 28.9742 269.466 28.9543L269.27 27.9737ZM269.06 28.02C269.06 28.02 269.06 28.02 269.059 28.02C269.059 28.02 269.059 28.02 269.059 28.02C269.059 28.02 269.059 28.02 269.058 28.02C269.058 28.02 269.058 28.02 269.058 28.02C269.058 28.02 269.057 28.02 269.057 28.02C269.057 28.02 269.057 28.02 269.057 28.02C269.057 28.02 269.056 28.02 269.056 28.02C269.056 28.02 269.056 28.02 269.056 28.02C269.055 28.02 269.055 28.02 269.055 28.02C269.055 28.02 269.055 28.02 269.055 28.02C269.054 28.02 269.054 28.02 269.054 28.02C269.054 28.02 269.054 28.02 269.053 28.02C269.053 28.02 269.053 28.02 269.053 28.02C269.053 28.02 269.053 28.02 269.052 28.02C269.052 28.02 269.052 28.02 269.052 28.02C269.052 28.02 269.051 28.02 269.051 28.02C269.051 28.02 269.051 28.02 269.051 28.02C269.051 28.02 269.05 28.02 269.05 28.02C269.05 28.02 269.05 28.02 269.05 28.02C269.049 28.02 269.049 28.02 269.049 28.02C269.049 28.02 269.049 28.02 269.049 28.02C269.048 28.02 269.048 28.02 269.048 28.02C269.048 28.02 269.048 28.02 269.047 28.02C269.047 28.02 269.047 28.02 269.047 28.02C269.047 28.02 269.047 28.02 269.046 28.02C269.046 28.02 269.046 28.02 269.046 28.02C269.046 28.02 269.045 28.02 269.045 28.02C269.045 28.02 269.045 28.02 269.045 28.02C269.045 28.02 269.044 28.02 269.044 28.02C269.044 28.02 269.044 28.02 269.044 28.02C269.043 28.02 269.043 28.02 269.043 28.02C269.043 28.02 269.043 28.02 269.043 28.02C269.042 28.02 269.042 28.02 269.042 28.02C269.042 28.02 269.042 28.02 269.041 28.02C269.041 28.02 269.041 28.02 269.041 28.02C269.041 28.02 269.04 28.02 269.04 28.02C269.04 28.02 269.04 28.02 269.04 28.02C269.04 28.02 269.039 28.02 269.039 28.02C269.039 28.02 269.039 28.02 269.039 28.02C269.038 28.02 269.038 28.02 269.038 28.02C269.038 28.02 269.038 28.02 269.038 28.02C269.037 28.02 269.037 28.02 269.037 28.02C269.037 28.02 269.037 28.02 269.036 28.02C269.036 28.02 269.036 28.02 269.036 28.02C269.036 28.02 269.036 28.02 269.035 28.02C269.035 28.02 269.035 28.02 269.035 28.02C269.035 28.02 269.034 28.02 269.034 28.02C269.034 28.02 269.034 28.02 269.034 28.02C269.034 28.02 269.033 28.02 269.033 28.02C269.033 28.02 269.033 28.02 269.033 28.02C269.032 28.02 269.032 28.02 269.032 28.02C269.032 28.02 269.032 28.02 269.032 28.02C269.031 28.02 269.031 28.02 269.031 28.02C269.031 28.02 269.031 28.02 269.03 28.02C269.03 28.02 269.03 28.02 269.03 28.02C269.03 28.02 269.03 28.02 269.029 28.02C269.029 28.02 269.029 28.02 269.029 28.02C269.029 28.02 269.028 28.02 269.028 28.02C269.028 28.02 269.028 28.02 269.028 28.02C269.028 28.02 269.027 28.02 269.027 28.02C269.027 28.02 269.027 28.02 269.027 28.02C269.026 28.02 269.026 28.02 269.026 28.02C269.026 28.02 269.026 28.02 269.026 28.02C269.025 28.02 269.025 28.02 269.025 28.02C269.025 28.02 269.025 28.02 269.024 28.02C269.024 28.02 269.024 28.02 269.024 28.02C269.024 28.02 269.024 28.02 269.023 28.02C269.023 28.02 269.023 28.02 269.023 28.02C269.023 28.02 269.022 28.02 269.022 28.02C269.022 28.02 269.022 28.02 269.022 28.02C269.022 28.02 269.021 28.02 269.021 28.02C269.021 28.02 269.021 28.02 269.021 28.02C269.02 28.02 269.02 28.02 269.02 28.02C269.02 28.02 269.02 28.02 269.02 28.02C269.019 28.02 269.019 28.02 269.019 28.02C269.019 28.02 269.019 28.02 269.018 28.02C269.018 28.02 269.018 28.02 269.018 28.02C269.018 28.02 269.018 28.02 269.017 28.02C269.017 28.02 269.017 28.02 269.017 28.02C269.017 28.02 269.016 28.02 269.016 28.02C269.016 28.02 269.016 28.02 269.016 28.02C269.016 28.02 269.015 28.02 269.015 28.02C269.015 28.02 269.015 28.02 269.015 28.02C269.014 28.02 269.014 28.02 269.014 28.02C269.014 28.02 269.014 28.02 269.014 28.02C269.013 28.02 269.013 28.02 269.013 28.02C269.013 28.02 269.013 28.02 269.012 28.02C269.012 28.02 269.012 28.02 269.012 28.02C269.012 28.02 269.012 28.02 269.011 28.02C269.011 28.02 269.011 28.02 269.011 28.02C269.011 28.02 269.01 28.02 269.01 28.02C269.01 28.02 269.01 28.02 269.01 28.02C269.01 28.02 269.009 28.02 269.009 28.02C269.009 28.02 269.009 28.02 269.009 28.02C269.008 28.02 269.008 28.02 269.008 28.02C269.008 28.02 269.008 28.02 269.008 28.02C269.007 28.02 269.007 28.02 269.007 28.02C269.007 28.02 269.007 28.02 269.006 28.02C269.006 28.02 269.006 28.02 269.006 28.02C269.006 28.02 269.005 28.02 269.005 28.02C269.005 28.02 269.005 28.02 269.005 28.02C269.005 28.02 269.004 28.02 269.004 28.02C269.004 28.02 269.004 28.02 269.004 28.02C269.003 28.02 269.003 28.02 269.003 28.02C269.003 28.02 269.003 28.02 269.003 28.02C269.002 28.02 269.002 28.02 269.002 28.02C269.002 28.02 269.002 28.02 269.001 28.02C269.001 28.02 269.001 28.02 269.001 28.02C269.001 28.02 269.001 28.02 269 28.02C269 28.02 269 28.02 269 28.02C269 28.02 268.999 28.02 268.999 28.02C268.999 28.02 268.999 28.02 268.999 28.02C268.999 28.02 268.998 28.02 268.998 28.02C268.998 28.02 268.998 28.02 268.998 28.02C268.997 28.02 268.997 28.02 268.997 28.02C268.997 28.02 268.997 28.02 268.997 28.02C268.996 28.02 268.996 28.02 268.996 28.02C268.996 28.02 268.996 28.02 268.995 28.02C268.995 28.02 268.995 28.02 268.995 28.02C268.995 28.02 268.995 28.02 268.994 28.02C268.994 28.02 268.994 28.02 268.994 28.02C268.994 28.02 268.993 28.02 268.993 28.02C268.993 28.02 268.993 28.02 268.993 28.02C268.993 28.02 268.992 28.02 268.992 28.02C268.992 28.02 268.992 28.02 268.992 28.02C268.991 28.02 268.991 28.02 268.991 28.02C268.991 28.02 268.991 28.02 268.991 28.02C268.99 28.02 268.99 28.02 268.99 28.02C268.99 28.02 268.99 28.02 268.989 28.02C268.989 28.02 268.989 28.02 268.989 28.02C268.989 28.02 268.989 28.02 268.988 28.02C268.988 28.02 268.988 28.02 268.988 28.02C268.988 28.02 268.987 28.02 268.987 28.02C268.987 28.02 268.987 28.02 268.987 28.02C268.987 28.02 268.986 28.02 268.986 28.02C268.986 28.02 268.986 28.02 268.986 28.02C268.985 28.02 268.985 28.02 268.985 28.02C268.985 28.02 268.985 28.02 268.985 28.02C268.984 28.02 268.984 28.02 268.984 28.02C268.984 28.02 268.984 28.02 268.983 28.02C268.983 28.02 268.983 28.02 268.983 28.02C268.983 28.02 268.983 28.02 268.982 28.02C268.982 28.02 268.982 28.02 268.982 28.02C268.982 28.02 268.981 28.02 268.981 28.02C268.981 28.02 268.981 28.02 268.981 28.02C268.981 28.02 268.98 28.02 268.98 28.02C268.98 28.02 268.98 28.02 268.98 28.02C268.979 28.02 268.979 28.02 268.979 28.02C268.979 28.02 268.979 28.02 268.979 28.02C268.978 28.02 268.978 28.02 268.978 28.02C268.978 28.02 268.978 28.02 268.977 28.02C268.977 28.02 268.977 28.02 268.977 28.02C268.977 28.02 268.977 28.02 268.976 28.02C268.976 28.02 268.976 28.02 268.976 28.02C268.976 28.02 268.975 28.02 268.975 28.02C268.975 28.02 268.975 28.02 268.975 28.02C268.975 28.02 268.974 28.02 268.974 28.02C268.974 28.02 268.974 28.02 268.974 28.02C268.973 28.02 268.973 28.02 268.973 28.02C268.973 28.02 268.973 28.02 268.973 28.02C268.972 28.02 268.972 28.02 268.972 28.02C268.972 28.02 268.972 28.02 268.971 28.02C268.971 28.02 268.971 28.02 268.971 28.02C268.971 28.02 268.97 28.02 268.97 28.02C268.97 28.02 268.97 28.02 268.97 28.02C268.97 28.02 268.969 28.02 268.969 28.02C268.969 28.02 268.969 28.02 268.969 28.02C268.968 28.02 268.968 28.02 268.968 28.02C268.968 28.02 268.968 28.02 268.968 28.02C268.967 28.02 268.967 28.02 268.967 28.02C268.967 28.02 268.967 28.02 268.966 28.02C268.966 28.02 268.966 28.02 268.966 28.02C268.966 28.02 268.966 28.02 268.965 28.02C268.965 28.02 268.965 28.02 268.965 28.02C268.965 28.02 268.964 28.02 268.964 28.02C268.964 28.02 268.964 28.02 268.964 28.02C268.964 28.02 268.963 28.02 268.963 28.02C268.963 28.02 268.963 28.02 268.963 28.02C268.962 28.02 268.962 28.02 268.962 28.02C268.962 28.02 268.962 28.02 268.962 28.02C268.961 28.02 268.961 28.02 268.961 28.02C268.961 28.02 268.961 28.02 268.96 28.02C268.96 28.02 268.96 28.02 268.96 28.02C268.96 28.02 268.96 28.02 268.959 28.02C268.959 28.02 268.959 28.02 268.959 28.02C268.959 28.02 268.958 28.02 268.958 28.02C268.958 28.02 268.958 28.02 268.958 28.02C268.958 28.02 268.957 28.02 268.957 28.02C268.957 28.02 268.957 28.02 268.957 28.02C268.956 28.02 268.956 28.02 268.956 28.02C268.956 28.02 268.956 28.02 268.956 28.02C268.955 28.02 268.955 28.02 268.955 28.02C268.955 28.02 268.955 28.02 268.954 28.02C268.954 28.02 268.954 28.02 268.954 28.02C268.954 28.02 268.954 28.02 268.953 28.02C268.953 28.02 268.953 28.02 268.953 28.02C268.953 28.02 268.952 28.02 268.952 28.02C268.952 28.02 268.952 28.02 268.952 28.02C268.952 28.02 268.951 28.02 268.951 28.02C268.951 28.02 268.951 28.02 268.951 28.02C268.95 28.02 268.95 28.02 268.95 28.02C268.95 28.02 268.95 28.02 268.95 28.02C268.949 28.02 268.949 28.02 268.949 28.02C268.949 28.02 268.949 28.02 268.948 28.02C268.948 28.02 268.948 28.02 268.948 28.02C268.948 28.02 268.948 28.02 268.947 28.02C268.947 28.02 268.947 28.02 268.947 28.02C268.947 28.02 268.946 28.02 268.946 28.02C268.946 28.02 268.946 28.02 268.946 28.02C268.946 28.02 268.945 28.02 268.945 28.02C268.945 28.02 268.945 28.02 268.945 28.02C268.944 28.02 268.944 28.02 268.944 28.02C268.944 28.02 268.944 28.02 268.944 28.02C268.943 28.02 268.943 28.02 268.943 28.02C268.943 28.02 268.943 28.02 268.942 28.02C268.942 28.02 268.942 28.02 268.942 28.02C268.942 28.02 268.942 28.02 268.941 28.02C268.941 28.02 268.941 28.02 268.941 28.02C268.941 28.02 268.94 28.02 268.94 28.02C268.94 28.02 268.94 28.02 268.94 28.02C268.94 28.02 268.939 28.02 268.939 28.02C268.939 28.02 268.939 28.02 268.939 28.02C268.938 28.02 268.938 28.02 268.938 28.02C268.938 28.02 268.938 28.02 268.938 28.02C268.937 28.02 268.937 28.02 268.937 28.02C268.937 28.02 268.937 28.02 268.936 28.02C268.936 28.02 268.936 28.02 268.936 28.02C268.936 28.02 268.935 28.02 268.935 28.02C268.935 28.02 268.935 28.02 268.935 28.02C268.935 28.02 268.934 28.02 268.934 28.02C268.934 28.02 268.934 28.02 268.934 28.02C268.933 28.02 268.933 28.02 268.933 28.02C268.933 28.02 268.933 28.02 268.933 28.02C268.932 28.02 268.932 28.02 268.932 28.02C268.932 28.02 268.932 28.02 268.931 28.02C268.931 28.02 268.931 28.02 268.931 28.02C268.931 28.02 268.931 28.02 268.93 28.02C268.93 28.02 268.93 28.02 268.93 28.02C268.93 28.02 268.929 28.02 268.929 28.02C268.929 28.02 268.929 28.02 268.929 28.02C268.929 28.02 268.928 28.02 268.928 28.02C268.928 28.02 268.928 28.02 268.928 28.02C268.927 28.02 268.927 28.02 268.927 28.02C268.927 28.02 268.927 28.02 268.927 28.02C268.926 28.02 268.926 28.02 268.926 28.02C268.926 28.02 268.926 28.02 268.925 28.02C268.925 28.02 268.925 28.02 268.925 28.02C268.925 28.02 268.925 28.02 268.924 28.02C268.924 28.02 268.924 28.02 268.924 28.02C268.924 28.02 268.923 28.02 268.923 28.02C268.923 28.02 268.923 28.02 268.923 28.02C268.923 28.02 268.922 28.02 268.922 28.02C268.922 28.02 268.922 28.02 268.922 28.02C268.921 28.02 268.921 28.02 268.921 28.02C268.921 28.02 268.921 28.02 268.921 28.02C268.92 28.02 268.92 28.02 268.92 28.02C268.92 28.02 268.92 28.02 268.919 28.02C268.919 28.02 268.919 28.02 268.919 28.02C268.919 28.02 268.919 28.02 268.918 28.02C268.918 28.02 268.918 28.02 268.918 28.02C268.918 28.02 268.917 28.02 268.917 28.02C268.917 28.02 268.917 28.02 268.917 28.02C268.917 28.02 268.916 28.02 268.916 28.02C268.916 28.02 268.916 28.02 268.916 28.02C268.915 28.02 268.915 28.02 268.915 28.02C268.915 28.02 268.915 28.02 268.915 28.02C268.914 28.02 268.914 28.02 268.914 28.02C268.914 28.02 268.914 28.02 268.913 28.02C268.913 28.02 268.913 28.02 268.913 28.02C268.913 28.02 268.913 28.02 268.912 28.02C268.912 28.02 268.912 28.02 268.912 28.02C268.912 28.02 268.911 28.02 268.911 28.02C268.911 28.02 268.911 28.02 268.911 28.02C268.911 28.02 268.91 28.02 268.91 28.02C268.91 28.02 268.91 28.02 268.91 28.02C268.909 28.02 268.909 28.02 268.909 28.02C268.909 28.02 268.909 28.02 268.909 28.02C268.908 28.02 268.908 28.02 268.908 28.02C268.908 28.02 268.908 28.02 268.907 28.02C268.907 28.02 268.907 28.02 268.907 28.02C268.907 28.02 268.907 28.02 268.906 28.02C268.906 28.02 268.906 28.02 268.906 28.02C268.906 28.02 268.905 28.02 268.905 28.02C268.905 28.02 268.905 28.02 268.905 28.02C268.905 28.02 268.904 28.02 268.904 28.02C268.904 28.02 268.904 28.02 268.904 28.02C268.903 28.02 268.903 28.02 268.903 28.02C268.903 28.02 268.903 28.02 268.903 28.02C268.902 28.02 268.902 28.02 268.902 28.02C268.902 28.02 268.902 28.02 268.901 28.02C268.901 28.02 268.901 28.02 268.901 28.02C268.901 28.02 268.9 28.02 268.9 28.02C268.9 28.02 268.9 28.02 268.9 28.02C268.9 28.02 268.899 28.02 268.899 28.02C268.899 28.02 268.899 28.02 268.899 28.02C268.898 28.02 268.898 28.02 268.898 28.02C268.898 28.02 268.898 28.02 268.898 28.02C268.897 28.02 268.897 28.02 268.897 28.02C268.897 28.02 268.897 28.02 268.896 28.02C268.896 28.02 268.896 28.02 268.896 28.02C268.896 28.02 268.896 28.02 268.895 28.02C268.895 28.02 268.895 28.02 268.895 28.02C268.895 28.02 268.894 28.02 268.894 28.02C268.894 28.02 268.894 28.02 268.894 28.02C268.894 28.02 268.893 28.02 268.893 28.02C268.893 28.02 268.893 28.02 268.893 28.02C268.892 28.02 268.892 28.02 268.892 28.02C268.892 28.02 268.892 28.02 268.892 28.02C268.891 28.02 268.891 28.02 268.891 28.02C268.891 28.02 268.891 28.02 268.89 28.02C268.89 28.02 268.89 28.02 268.89 28.02C268.89 28.02 268.89 28.02 268.889 28.02C268.889 28.02 268.889 28.02 268.889 28.02C268.889 28.02 268.888 28.02 268.888 28.02C268.888 28.02 268.888 28.02 268.888 28.02C268.888 28.02 268.887 28.02 268.887 28.02C268.887 28.02 268.887 28.02 268.887 28.02C268.886 28.02 268.886 28.02 268.886 28.02C268.886 28.02 268.886 28.02 268.886 28.02C268.885 28.02 268.885 28.02 268.885 28.02C268.885 28.02 268.885 28.02 268.884 28.02C268.884 28.02 268.884 28.02 268.884 28.02C268.884 28.02 268.884 28.02 268.883 28.02C268.883 28.02 268.883 28.02 268.883 28.02C268.883 28.02 268.882 28.02 268.882 28.02C268.882 28.02 268.882 28.02 268.882 28.02C268.882 28.02 268.881 28.02 268.881 28.02C268.881 28.02 268.881 28.02 268.881 28.02C268.88 28.02 268.88 28.02 268.88 28.02C268.88 28.02 268.88 28.02 268.88 28.02C268.879 28.02 268.879 28.02 268.879 28.02C268.879 28.02 268.879 28.02 268.878 28.02C268.878 28.02 268.878 28.02 268.878 28.02C268.878 28.02 268.878 28.02 268.877 28.02C268.877 28.02 268.877 28.02 268.877 28.02C268.877 28.02 268.876 28.02 268.876 28.02C268.876 28.02 268.876 28.02 268.876 28.02C268.876 28.02 268.875 28.02 268.875 28.02C268.875 28.02 268.875 28.02 268.875 28.02C268.874 28.02 268.874 28.02 268.874 28.02C268.874 28.02 268.874 28.02 268.874 28.02C268.873 28.02 268.873 28.02 268.873 28.02C268.873 28.02 268.873 28.02 268.872 28.02C268.872 28.02 268.872 28.02 268.872 28.02C268.872 28.02 268.872 28.02 268.871 28.02C268.871 28.02 268.871 28.02 268.871 28.02C268.871 28.02 268.87 28.02 268.87 28.02C268.87 28.02 268.87 28.02 268.87 28.02C268.87 28.02 268.869 28.02 268.869 28.02C268.869 28.02 268.869 28.02 268.869 28.02C268.868 28.02 268.868 28.02 268.868 28.02C268.868 28.02 268.868 28.02 268.868 28.02C268.867 28.02 268.867 28.02 268.867 28.02C268.867 28.02 268.867 28.02 268.866 28.02C268.866 28.02 268.866 28.02 268.866 28.02C268.866 28.02 268.865 28.02 268.865 28.02C268.865 28.02 268.865 28.02 268.865 28.02C268.865 28.02 268.864 28.02 268.864 28.02C268.864 28.02 268.864 28.02 268.864 28.02C268.863 28.02 268.863 28.02 268.863 28.02C268.863 28.02 268.863 28.02 268.863 28.02C268.862 28.02 268.862 28.02 268.862 28.02C268.862 28.02 268.862 28.02 268.861 28.02C268.861 28.02 268.861 28.02 268.861 28.02C268.861 28.02 268.861 28.02 268.86 28.02C268.86 28.02 268.86 28.02 268.86 28.02C268.86 28.02 268.859 28.02 268.859 28.02C268.859 28.02 268.859 28.02 268.859 28.02C268.859 28.02 268.858 28.02 268.858 28.02C268.858 28.02 268.858 28.02 268.858 28.02C268.857 28.02 268.857 28.02 268.857 28.02C268.857 28.02 268.857 28.02 268.857 28.02C268.856 28.02 268.856 28.02 268.856 28.02C268.856 28.02 268.856 28.02 268.855 28.02C268.855 28.02 268.855 28.02 268.855 28.02C268.855 28.02 268.855 28.02 268.854 28.02C268.854 28.02 268.854 28.02 268.854 28.02C268.854 28.02 268.853 28.02 268.853 28.02C268.853 28.02 268.853 28.02 268.853 28.02C268.853 28.02 268.852 28.02 268.852 28.02C268.852 28.02 268.852 28.02 268.852 28.02C268.851 28.02 268.851 28.02 268.851 28.02C268.851 28.02 268.851 28.02 268.851 28.02C268.85 28.02 268.85 28.02 268.85 28.02C268.85 28.02 268.85 28.02 268.849 28.02C268.849 28.02 268.849 28.02 268.849 28.02C268.849 28.02 268.849 28.02 268.848 28.02C268.848 28.02 268.848 28.02 268.848 28.02C268.848 28.02 268.847 28.02 268.847 28.02C268.847 28.02 268.847 28.02 268.847 28.02C268.847 28.02 268.846 28.02 268.846 28.02C268.846 28.02 268.846 28.02 268.846 28.02C268.845 28.02 268.845 28.02 268.845 28.02C268.845 28.02 268.845 28.02 268.845 28.02C268.844 28.02 268.844 28.02 268.844 28.02C268.844 28.02 268.844 28.02 268.843 28.02C268.843 28.02 268.843 28.02 268.843 28.02C268.843 28.02 268.843 28.02 268.842 28.02C268.842 28.02 268.842 28.02 268.842 28.02C268.842 28.02 268.841 28.02 268.841 28.02C268.841 28.02 268.841 28.02 268.841 28.02C268.841 28.02 268.84 28.02 268.84 28.02C268.84 28.02 268.84 28.02 268.84 28.02C268.839 28.02 268.839 28.02 268.839 28.02C268.839 28.02 268.839 28.02 268.839 28.02C268.838 28.02 268.838 28.02 268.838 28.02C268.838 28.02 268.838 28.02 268.837 28.02C268.837 28.02 268.837 28.02 268.837 28.02C268.837 28.02 268.837 28.02 268.836 28.02C268.836 28.02 268.836 28.02 268.836 28.02C268.836 28.02 268.835 28.02 268.835 28.02C268.835 28.02 268.835 28.02 268.835 28.02C268.835 28.02 268.834 28.02 268.834 28.02C268.834 28.02 268.834 28.02 268.834 28.02C268.833 28.02 268.833 28.02 268.833 28.02C268.833 28.02 268.833 28.02 268.833 28.02C268.832 28.02 268.832 28.02 268.832 28.02C268.832 28.02 268.832 28.02 268.831 28.02C268.831 28.02 268.831 28.02 268.831 28.02C268.831 28.02 268.83 28.02 268.83 28.02C268.83 28.02 268.83 28.02 268.83 28.02C268.83 28.02 268.829 28.02 268.829 28.02C268.829 28.02 268.829 28.02 268.829 28.02C268.828 28.02 268.828 28.02 268.828 28.02C268.828 28.02 268.828 28.02 268.828 28.02C268.827 28.02 268.827 28.02 268.827 28.02C268.827 28.02 268.827 28.02 268.826 28.02C268.826 28.02 268.826 28.02 268.826 28.02C268.826 28.02 268.826 28.02 268.825 28.02C268.825 28.02 268.825 28.02 268.825 28.02C268.825 28.02 268.824 28.02 268.824 28.02C268.824 28.02 268.824 28.02 268.824 28.02C268.824 28.02 268.823 28.02 268.823 28.02C268.823 28.02 268.823 28.02 268.823 28.02C268.822 28.02 268.822 28.02 268.822 28.02C268.822 28.02 268.822 28.02 268.822 28.02C268.821 28.02 268.821 28.02 268.821 28.02C268.821 28.02 268.821 28.02 268.82 28.02C268.82 28.02 268.82 28.02 268.82 28.02C268.82 28.02 268.82 28.02 268.819 28.02C268.819 28.02 268.819 28.02 268.819 28.02C268.819 28.02 268.818 28.02 268.818 28.02C268.818 28.02 268.818 28.02 268.818 28.02C268.818 28.02 268.817 28.02 268.817 28.02C268.817 28.02 268.817 28.02 268.817 28.02C268.816 28.02 268.816 28.02 268.816 28.02C268.816 28.02 268.816 28.02 268.816 28.02C268.815 28.02 268.815 28.02 268.815 28.02C268.815 28.02 268.815 28.02 268.814 28.02C268.814 28.02 268.814 28.02 268.814 28.02C268.814 28.02 268.814 28.02 268.813 28.02C268.813 28.02 268.813 28.02 268.813 28.02C268.813 28.02 268.812 28.02 268.812 28.02C268.812 28.02 268.812 28.02 268.812 28.02C268.812 28.02 268.811 28.02 268.811 28.02C268.811 28.02 268.811 28.02 268.811 28.02C268.81 28.02 268.81 28.02 268.81 28.02C268.81 28.02 268.81 28.02 268.81 28.02C268.809 28.02 268.809 28.02 268.809 28.02C268.809 28.02 268.809 28.02 268.808 28.02C268.808 28.02 268.808 28.02 268.808 28.02C268.808 28.02 268.808 28.02 268.807 28.02C268.807 28.02 268.807 28.02 268.807 28.02C268.807 28.02 268.806 28.02 268.806 28.02C268.806 28.02 268.806 28.02 268.806 28.02C268.806 28.02 268.805 28.02 268.805 28.02C268.805 28.02 268.805 28.02 268.805 28.02C268.804 28.02 268.804 28.02 268.804 28.02C268.804 28.02 268.804 28.02 268.804 28.02C268.803 28.02 268.803 28.02 268.803 28.02C268.803 28.02 268.803 28.02 268.802 28.02C268.802 28.02 268.802 28.02 268.802 28.02C268.802 28.02 268.802 28.02 268.801 28.02C268.801 28.02 268.801 28.02 268.801 28.02C268.801 28.02 268.8 28.02 268.8 28.02C268.8 28.02 268.8 28.02 268.8 28.02C268.8 28.02 268.799 28.02 268.799 28.02C268.799 28.02 268.799 28.02 268.799 28.02C268.798 28.02 268.798 28.02 268.798 28.02C268.798 28.02 268.798 28.02 268.798 28.02C268.797 28.02 268.797 28.02 268.797 28.02C268.797 28.02 268.797 28.02 268.796 28.02C268.796 28.02 268.796 28.02 268.796 28.02C268.796 28.02 268.795 28.02 268.795 28.02C268.795 28.02 268.795 28.02 268.795 28.02C268.795 28.02 268.794 28.02 268.794 28.02C268.794 28.02 268.794 28.02 268.794 28.02C268.793 28.02 268.793 28.02 268.793 28.02C268.793 28.02 268.793 28.02 268.793 28.02C268.792 28.02 268.792 28.02 268.792 28.02C268.792 28.02 268.792 28.02 268.791 28.02C268.791 28.02 268.791 28.02 268.791 28.02C268.791 28.02 268.791 28.02 268.79 28.02C268.79 28.02 268.79 28.02 268.79 28.02C268.79 28.02 268.789 28.02 268.789 28.02C268.789 28.02 268.789 28.02 268.789 28.02C268.789 28.02 268.788 28.02 268.788 28.02C268.788 28.02 268.788 28.02 268.788 28.02C268.787 28.02 268.787 28.02 268.787 28.02C268.787 28.02 268.787 28.02 268.787 28.02C268.786 28.02 268.786 28.02 268.786 28.02C268.786 28.02 268.786 28.02 268.785 28.02C268.785 28.02 268.785 28.02 268.785 28.02C268.785 28.02 268.785 28.02 268.784 28.02C268.784 28.02 268.784 28.02 268.784 28.02C268.784 28.02 268.783 28.02 268.783 28.02C268.783 28.02 268.783 28.02 268.783 28.02C268.783 28.02 268.782 28.02 268.782 28.02C268.782 28.02 268.782 28.02 268.782 28.02C268.781 28.02 268.781 28.02 268.781 28.02C268.781 28.02 268.781 28.02 268.781 28.02C268.78 28.02 268.78 28.02 268.78 28.02V29.02C268.78 29.02 268.78 29.02 268.781 29.02C268.781 29.02 268.781 29.02 268.781 29.02C268.781 29.02 268.781 29.02 268.782 29.02C268.782 29.02 268.782 29.02 268.782 29.02C268.782 29.02 268.783 29.02 268.783 29.02C268.783 29.02 268.783 29.02 268.783 29.02C268.783 29.02 268.784 29.02 268.784 29.02C268.784 29.02 268.784 29.02 268.784 29.02C268.785 29.02 268.785 29.02 268.785 29.02C268.785 29.02 268.785 29.02 268.785 29.02C268.786 29.02 268.786 29.02 268.786 29.02C268.786 29.02 268.786 29.02 268.787 29.02C268.787 29.02 268.787 29.02 268.787 29.02C268.787 29.02 268.787 29.02 268.788 29.02C268.788 29.02 268.788 29.02 268.788 29.02C268.788 29.02 268.789 29.02 268.789 29.02C268.789 29.02 268.789 29.02 268.789 29.02C268.789 29.02 268.79 29.02 268.79 29.02C268.79 29.02 268.79 29.02 268.79 29.02C268.791 29.02 268.791 29.02 268.791 29.02C268.791 29.02 268.791 29.02 268.791 29.02C268.792 29.02 268.792 29.02 268.792 29.02C268.792 29.02 268.792 29.02 268.793 29.02C268.793 29.02 268.793 29.02 268.793 29.02C268.793 29.02 268.793 29.02 268.794 29.02C268.794 29.02 268.794 29.02 268.794 29.02C268.794 29.02 268.795 29.02 268.795 29.02C268.795 29.02 268.795 29.02 268.795 29.02C268.795 29.02 268.796 29.02 268.796 29.02C268.796 29.02 268.796 29.02 268.796 29.02C268.797 29.02 268.797 29.02 268.797 29.02C268.797 29.02 268.797 29.02 268.798 29.02C268.798 29.02 268.798 29.02 268.798 29.02C268.798 29.02 268.798 29.02 268.799 29.02C268.799 29.02 268.799 29.02 268.799 29.02C268.799 29.02 268.8 29.02 268.8 29.02C268.8 29.02 268.8 29.02 268.8 29.02C268.8 29.02 268.801 29.02 268.801 29.02C268.801 29.02 268.801 29.02 268.801 29.02C268.802 29.02 268.802 29.02 268.802 29.02C268.802 29.02 268.802 29.02 268.802 29.02C268.803 29.02 268.803 29.02 268.803 29.02C268.803 29.02 268.803 29.02 268.804 29.02C268.804 29.02 268.804 29.02 268.804 29.02C268.804 29.02 268.804 29.02 268.805 29.02C268.805 29.02 268.805 29.02 268.805 29.02C268.805 29.02 268.806 29.02 268.806 29.02C268.806 29.02 268.806 29.02 268.806 29.02C268.806 29.02 268.807 29.02 268.807 29.02C268.807 29.02 268.807 29.02 268.807 29.02C268.808 29.02 268.808 29.02 268.808 29.02C268.808 29.02 268.808 29.02 268.808 29.02C268.809 29.02 268.809 29.02 268.809 29.02C268.809 29.02 268.809 29.02 268.81 29.02C268.81 29.02 268.81 29.02 268.81 29.02C268.81 29.02 268.81 29.02 268.811 29.02C268.811 29.02 268.811 29.02 268.811 29.02C268.811 29.02 268.812 29.02 268.812 29.02C268.812 29.02 268.812 29.02 268.812 29.02C268.812 29.02 268.813 29.02 268.813 29.02C268.813 29.02 268.813 29.02 268.813 29.02C268.814 29.02 268.814 29.02 268.814 29.02C268.814 29.02 268.814 29.02 268.814 29.02C268.815 29.02 268.815 29.02 268.815 29.02C268.815 29.02 268.815 29.02 268.816 29.02C268.816 29.02 268.816 29.02 268.816 29.02C268.816 29.02 268.816 29.02 268.817 29.02C268.817 29.02 268.817 29.02 268.817 29.02C268.817 29.02 268.818 29.02 268.818 29.02C268.818 29.02 268.818 29.02 268.818 29.02C268.818 29.02 268.819 29.02 268.819 29.02C268.819 29.02 268.819 29.02 268.819 29.02C268.82 29.02 268.82 29.02 268.82 29.02C268.82 29.02 268.82 29.02 268.82 29.02C268.821 29.02 268.821 29.02 268.821 29.02C268.821 29.02 268.821 29.02 268.822 29.02C268.822 29.02 268.822 29.02 268.822 29.02C268.822 29.02 268.822 29.02 268.823 29.02C268.823 29.02 268.823 29.02 268.823 29.02C268.823 29.02 268.824 29.02 268.824 29.02C268.824 29.02 268.824 29.02 268.824 29.02C268.824 29.02 268.825 29.02 268.825 29.02C268.825 29.02 268.825 29.02 268.825 29.02C268.826 29.02 268.826 29.02 268.826 29.02C268.826 29.02 268.826 29.02 268.826 29.02C268.827 29.02 268.827 29.02 268.827 29.02C268.827 29.02 268.827 29.02 268.828 29.02C268.828 29.02 268.828 29.02 268.828 29.02C268.828 29.02 268.828 29.02 268.829 29.02C268.829 29.02 268.829 29.02 268.829 29.02C268.829 29.02 268.83 29.02 268.83 29.02C268.83 29.02 268.83 29.02 268.83 29.02C268.83 29.02 268.831 29.02 268.831 29.02C268.831 29.02 268.831 29.02 268.831 29.02C268.832 29.02 268.832 29.02 268.832 29.02C268.832 29.02 268.832 29.02 268.833 29.02C268.833 29.02 268.833 29.02 268.833 29.02C268.833 29.02 268.833 29.02 268.834 29.02C268.834 29.02 268.834 29.02 268.834 29.02C268.834 29.02 268.835 29.02 268.835 29.02C268.835 29.02 268.835 29.02 268.835 29.02C268.835 29.02 268.836 29.02 268.836 29.02C268.836 29.02 268.836 29.02 268.836 29.02C268.837 29.02 268.837 29.02 268.837 29.02C268.837 29.02 268.837 29.02 268.837 29.02C268.838 29.02 268.838 29.02 268.838 29.02C268.838 29.02 268.838 29.02 268.839 29.02C268.839 29.02 268.839 29.02 268.839 29.02C268.839 29.02 268.839 29.02 268.84 29.02C268.84 29.02 268.84 29.02 268.84 29.02C268.84 29.02 268.841 29.02 268.841 29.02C268.841 29.02 268.841 29.02 268.841 29.02C268.841 29.02 268.842 29.02 268.842 29.02C268.842 29.02 268.842 29.02 268.842 29.02C268.843 29.02 268.843 29.02 268.843 29.02C268.843 29.02 268.843 29.02 268.843 29.02C268.844 29.02 268.844 29.02 268.844 29.02C268.844 29.02 268.844 29.02 268.845 29.02C268.845 29.02 268.845 29.02 268.845 29.02C268.845 29.02 268.845 29.02 268.846 29.02C268.846 29.02 268.846 29.02 268.846 29.02C268.846 29.02 268.847 29.02 268.847 29.02C268.847 29.02 268.847 29.02 268.847 29.02C268.847 29.02 268.848 29.02 268.848 29.02C268.848 29.02 268.848 29.02 268.848 29.02C268.849 29.02 268.849 29.02 268.849 29.02C268.849 29.02 268.849 29.02 268.849 29.02C268.85 29.02 268.85 29.02 268.85 29.02C268.85 29.02 268.85 29.02 268.851 29.02C268.851 29.02 268.851 29.02 268.851 29.02C268.851 29.02 268.851 29.02 268.852 29.02C268.852 29.02 268.852 29.02 268.852 29.02C268.852 29.02 268.853 29.02 268.853 29.02C268.853 29.02 268.853 29.02 268.853 29.02C268.853 29.02 268.854 29.02 268.854 29.02C268.854 29.02 268.854 29.02 268.854 29.02C268.855 29.02 268.855 29.02 268.855 29.02C268.855 29.02 268.855 29.02 268.855 29.02C268.856 29.02 268.856 29.02 268.856 29.02C268.856 29.02 268.856 29.02 268.857 29.02C268.857 29.02 268.857 29.02 268.857 29.02C268.857 29.02 268.857 29.02 268.858 29.02C268.858 29.02 268.858 29.02 268.858 29.02C268.858 29.02 268.859 29.02 268.859 29.02C268.859 29.02 268.859 29.02 268.859 29.02C268.859 29.02 268.86 29.02 268.86 29.02C268.86 29.02 268.86 29.02 268.86 29.02C268.861 29.02 268.861 29.02 268.861 29.02C268.861 29.02 268.861 29.02 268.861 29.02C268.862 29.02 268.862 29.02 268.862 29.02C268.862 29.02 268.862 29.02 268.863 29.02C268.863 29.02 268.863 29.02 268.863 29.02C268.863 29.02 268.863 29.02 268.864 29.02C268.864 29.02 268.864 29.02 268.864 29.02C268.864 29.02 268.865 29.02 268.865 29.02C268.865 29.02 268.865 29.02 268.865 29.02C268.865 29.02 268.866 29.02 268.866 29.02C268.866 29.02 268.866 29.02 268.866 29.02C268.867 29.02 268.867 29.02 268.867 29.02C268.867 29.02 268.867 29.02 268.868 29.02C268.868 29.02 268.868 29.02 268.868 29.02C268.868 29.02 268.868 29.02 268.869 29.02C268.869 29.02 268.869 29.02 268.869 29.02C268.869 29.02 268.87 29.02 268.87 29.02C268.87 29.02 268.87 29.02 268.87 29.02C268.87 29.02 268.871 29.02 268.871 29.02C268.871 29.02 268.871 29.02 268.871 29.02C268.872 29.02 268.872 29.02 268.872 29.02C268.872 29.02 268.872 29.02 268.872 29.02C268.873 29.02 268.873 29.02 268.873 29.02C268.873 29.02 268.873 29.02 268.874 29.02C268.874 29.02 268.874 29.02 268.874 29.02C268.874 29.02 268.874 29.02 268.875 29.02C268.875 29.02 268.875 29.02 268.875 29.02C268.875 29.02 268.876 29.02 268.876 29.02C268.876 29.02 268.876 29.02 268.876 29.02C268.876 29.02 268.877 29.02 268.877 29.02C268.877 29.02 268.877 29.02 268.877 29.02C268.878 29.02 268.878 29.02 268.878 29.02C268.878 29.02 268.878 29.02 268.878 29.02C268.879 29.02 268.879 29.02 268.879 29.02C268.879 29.02 268.879 29.02 268.88 29.02C268.88 29.02 268.88 29.02 268.88 29.02C268.88 29.02 268.88 29.02 268.881 29.02C268.881 29.02 268.881 29.02 268.881 29.02C268.881 29.02 268.882 29.02 268.882 29.02C268.882 29.02 268.882 29.02 268.882 29.02C268.882 29.02 268.883 29.02 268.883 29.02C268.883 29.02 268.883 29.02 268.883 29.02C268.884 29.02 268.884 29.02 268.884 29.02C268.884 29.02 268.884 29.02 268.884 29.02C268.885 29.02 268.885 29.02 268.885 29.02C268.885 29.02 268.885 29.02 268.886 29.02C268.886 29.02 268.886 29.02 268.886 29.02C268.886 29.02 268.886 29.02 268.887 29.02C268.887 29.02 268.887 29.02 268.887 29.02C268.887 29.02 268.888 29.02 268.888 29.02C268.888 29.02 268.888 29.02 268.888 29.02C268.888 29.02 268.889 29.02 268.889 29.02C268.889 29.02 268.889 29.02 268.889 29.02C268.89 29.02 268.89 29.02 268.89 29.02C268.89 29.02 268.89 29.02 268.89 29.02C268.891 29.02 268.891 29.02 268.891 29.02C268.891 29.02 268.891 29.02 268.892 29.02C268.892 29.02 268.892 29.02 268.892 29.02C268.892 29.02 268.892 29.02 268.893 29.02C268.893 29.02 268.893 29.02 268.893 29.02C268.893 29.02 268.894 29.02 268.894 29.02C268.894 29.02 268.894 29.02 268.894 29.02C268.894 29.02 268.895 29.02 268.895 29.02C268.895 29.02 268.895 29.02 268.895 29.02C268.896 29.02 268.896 29.02 268.896 29.02C268.896 29.02 268.896 29.02 268.896 29.02C268.897 29.02 268.897 29.02 268.897 29.02C268.897 29.02 268.897 29.02 268.898 29.02C268.898 29.02 268.898 29.02 268.898 29.02C268.898 29.02 268.898 29.02 268.899 29.02C268.899 29.02 268.899 29.02 268.899 29.02C268.899 29.02 268.9 29.02 268.9 29.02C268.9 29.02 268.9 29.02 268.9 29.02C268.9 29.02 268.901 29.02 268.901 29.02C268.901 29.02 268.901 29.02 268.901 29.02C268.902 29.02 268.902 29.02 268.902 29.02C268.902 29.02 268.902 29.02 268.903 29.02C268.903 29.02 268.903 29.02 268.903 29.02C268.903 29.02 268.903 29.02 268.904 29.02C268.904 29.02 268.904 29.02 268.904 29.02C268.904 29.02 268.905 29.02 268.905 29.02C268.905 29.02 268.905 29.02 268.905 29.02C268.905 29.02 268.906 29.02 268.906 29.02C268.906 29.02 268.906 29.02 268.906 29.02C268.907 29.02 268.907 29.02 268.907 29.02C268.907 29.02 268.907 29.02 268.907 29.02C268.908 29.02 268.908 29.02 268.908 29.02C268.908 29.02 268.908 29.02 268.909 29.02C268.909 29.02 268.909 29.02 268.909 29.02C268.909 29.02 268.909 29.02 268.91 29.02C268.91 29.02 268.91 29.02 268.91 29.02C268.91 29.02 268.911 29.02 268.911 29.02C268.911 29.02 268.911 29.02 268.911 29.02C268.911 29.02 268.912 29.02 268.912 29.02C268.912 29.02 268.912 29.02 268.912 29.02C268.913 29.02 268.913 29.02 268.913 29.02C268.913 29.02 268.913 29.02 268.913 29.02C268.914 29.02 268.914 29.02 268.914 29.02C268.914 29.02 268.914 29.02 268.915 29.02C268.915 29.02 268.915 29.02 268.915 29.02C268.915 29.02 268.915 29.02 268.916 29.02C268.916 29.02 268.916 29.02 268.916 29.02C268.916 29.02 268.917 29.02 268.917 29.02C268.917 29.02 268.917 29.02 268.917 29.02C268.917 29.02 268.918 29.02 268.918 29.02C268.918 29.02 268.918 29.02 268.918 29.02C268.919 29.02 268.919 29.02 268.919 29.02C268.919 29.02 268.919 29.02 268.919 29.02C268.92 29.02 268.92 29.02 268.92 29.02C268.92 29.02 268.92 29.02 268.921 29.02C268.921 29.02 268.921 29.02 268.921 29.02C268.921 29.02 268.921 29.02 268.922 29.02C268.922 29.02 268.922 29.02 268.922 29.02C268.922 29.02 268.923 29.02 268.923 29.02C268.923 29.02 268.923 29.02 268.923 29.02C268.923 29.02 268.924 29.02 268.924 29.02C268.924 29.02 268.924 29.02 268.924 29.02C268.925 29.02 268.925 29.02 268.925 29.02C268.925 29.02 268.925 29.02 268.925 29.02C268.926 29.02 268.926 29.02 268.926 29.02C268.926 29.02 268.926 29.02 268.927 29.02C268.927 29.02 268.927 29.02 268.927 29.02C268.927 29.02 268.927 29.02 268.928 29.02C268.928 29.02 268.928 29.02 268.928 29.02C268.928 29.02 268.929 29.02 268.929 29.02C268.929 29.02 268.929 29.02 268.929 29.02C268.929 29.02 268.93 29.02 268.93 29.02C268.93 29.02 268.93 29.02 268.93 29.02C268.931 29.02 268.931 29.02 268.931 29.02C268.931 29.02 268.931 29.02 268.931 29.02C268.932 29.02 268.932 29.02 268.932 29.02C268.932 29.02 268.932 29.02 268.933 29.02C268.933 29.02 268.933 29.02 268.933 29.02C268.933 29.02 268.933 29.02 268.934 29.02C268.934 29.02 268.934 29.02 268.934 29.02C268.934 29.02 268.935 29.02 268.935 29.02C268.935 29.02 268.935 29.02 268.935 29.02C268.935 29.02 268.936 29.02 268.936 29.02C268.936 29.02 268.936 29.02 268.936 29.02C268.937 29.02 268.937 29.02 268.937 29.02C268.937 29.02 268.937 29.02 268.938 29.02C268.938 29.02 268.938 29.02 268.938 29.02C268.938 29.02 268.938 29.02 268.939 29.02C268.939 29.02 268.939 29.02 268.939 29.02C268.939 29.02 268.94 29.02 268.94 29.02C268.94 29.02 268.94 29.02 268.94 29.02C268.94 29.02 268.941 29.02 268.941 29.02C268.941 29.02 268.941 29.02 268.941 29.02C268.942 29.02 268.942 29.02 268.942 29.02C268.942 29.02 268.942 29.02 268.942 29.02C268.943 29.02 268.943 29.02 268.943 29.02C268.943 29.02 268.943 29.02 268.944 29.02C268.944 29.02 268.944 29.02 268.944 29.02C268.944 29.02 268.944 29.02 268.945 29.02C268.945 29.02 268.945 29.02 268.945 29.02C268.945 29.02 268.946 29.02 268.946 29.02C268.946 29.02 268.946 29.02 268.946 29.02C268.946 29.02 268.947 29.02 268.947 29.02C268.947 29.02 268.947 29.02 268.947 29.02C268.948 29.02 268.948 29.02 268.948 29.02C268.948 29.02 268.948 29.02 268.948 29.02C268.949 29.02 268.949 29.02 268.949 29.02C268.949 29.02 268.949 29.02 268.95 29.02C268.95 29.02 268.95 29.02 268.95 29.02C268.95 29.02 268.95 29.02 268.951 29.02C268.951 29.02 268.951 29.02 268.951 29.02C268.951 29.02 268.952 29.02 268.952 29.02C268.952 29.02 268.952 29.02 268.952 29.02C268.952 29.02 268.953 29.02 268.953 29.02C268.953 29.02 268.953 29.02 268.953 29.02C268.954 29.02 268.954 29.02 268.954 29.02C268.954 29.02 268.954 29.02 268.954 29.02C268.955 29.02 268.955 29.02 268.955 29.02C268.955 29.02 268.955 29.02 268.956 29.02C268.956 29.02 268.956 29.02 268.956 29.02C268.956 29.02 268.956 29.02 268.957 29.02C268.957 29.02 268.957 29.02 268.957 29.02C268.957 29.02 268.958 29.02 268.958 29.02C268.958 29.02 268.958 29.02 268.958 29.02C268.958 29.02 268.959 29.02 268.959 29.02C268.959 29.02 268.959 29.02 268.959 29.02C268.96 29.02 268.96 29.02 268.96 29.02C268.96 29.02 268.96 29.02 268.96 29.02C268.961 29.02 268.961 29.02 268.961 29.02C268.961 29.02 268.961 29.02 268.962 29.02C268.962 29.02 268.962 29.02 268.962 29.02C268.962 29.02 268.962 29.02 268.963 29.02C268.963 29.02 268.963 29.02 268.963 29.02C268.963 29.02 268.964 29.02 268.964 29.02C268.964 29.02 268.964 29.02 268.964 29.02C268.964 29.02 268.965 29.02 268.965 29.02C268.965 29.02 268.965 29.02 268.965 29.02C268.966 29.02 268.966 29.02 268.966 29.02C268.966 29.02 268.966 29.02 268.966 29.02C268.967 29.02 268.967 29.02 268.967 29.02C268.967 29.02 268.967 29.02 268.968 29.02C268.968 29.02 268.968 29.02 268.968 29.02C268.968 29.02 268.968 29.02 268.969 29.02C268.969 29.02 268.969 29.02 268.969 29.02C268.969 29.02 268.97 29.02 268.97 29.02C268.97 29.02 268.97 29.02 268.97 29.02C268.97 29.02 268.971 29.02 268.971 29.02C268.971 29.02 268.971 29.02 268.971 29.02C268.972 29.02 268.972 29.02 268.972 29.02C268.972 29.02 268.972 29.02 268.973 29.02C268.973 29.02 268.973 29.02 268.973 29.02C268.973 29.02 268.973 29.02 268.974 29.02C268.974 29.02 268.974 29.02 268.974 29.02C268.974 29.02 268.975 29.02 268.975 29.02C268.975 29.02 268.975 29.02 268.975 29.02C268.975 29.02 268.976 29.02 268.976 29.02C268.976 29.02 268.976 29.02 268.976 29.02C268.977 29.02 268.977 29.02 268.977 29.02C268.977 29.02 268.977 29.02 268.977 29.02C268.978 29.02 268.978 29.02 268.978 29.02C268.978 29.02 268.978 29.02 268.979 29.02C268.979 29.02 268.979 29.02 268.979 29.02C268.979 29.02 268.979 29.02 268.98 29.02C268.98 29.02 268.98 29.02 268.98 29.02C268.98 29.02 268.981 29.02 268.981 29.02C268.981 29.02 268.981 29.02 268.981 29.02C268.981 29.02 268.982 29.02 268.982 29.02C268.982 29.02 268.982 29.02 268.982 29.02C268.983 29.02 268.983 29.02 268.983 29.02C268.983 29.02 268.983 29.02 268.983 29.02C268.984 29.02 268.984 29.02 268.984 29.02C268.984 29.02 268.984 29.02 268.985 29.02C268.985 29.02 268.985 29.02 268.985 29.02C268.985 29.02 268.985 29.02 268.986 29.02C268.986 29.02 268.986 29.02 268.986 29.02C268.986 29.02 268.987 29.02 268.987 29.02C268.987 29.02 268.987 29.02 268.987 29.02C268.987 29.02 268.988 29.02 268.988 29.02C268.988 29.02 268.988 29.02 268.988 29.02C268.989 29.02 268.989 29.02 268.989 29.02C268.989 29.02 268.989 29.02 268.989 29.02C268.99 29.02 268.99 29.02 268.99 29.02C268.99 29.02 268.99 29.02 268.991 29.02C268.991 29.02 268.991 29.02 268.991 29.02C268.991 29.02 268.991 29.02 268.992 29.02C268.992 29.02 268.992 29.02 268.992 29.02C268.992 29.02 268.993 29.02 268.993 29.02C268.993 29.02 268.993 29.02 268.993 29.02C268.993 29.02 268.994 29.02 268.994 29.02C268.994 29.02 268.994 29.02 268.994 29.02C268.995 29.02 268.995 29.02 268.995 29.02C268.995 29.02 268.995 29.02 268.995 29.02C268.996 29.02 268.996 29.02 268.996 29.02C268.996 29.02 268.996 29.02 268.997 29.02C268.997 29.02 268.997 29.02 268.997 29.02C268.997 29.02 268.997 29.02 268.998 29.02C268.998 29.02 268.998 29.02 268.998 29.02C268.998 29.02 268.999 29.02 268.999 29.02C268.999 29.02 268.999 29.02 268.999 29.02C268.999 29.02 269 29.02 269 29.02C269 29.02 269 29.02 269 29.02C269.001 29.02 269.001 29.02 269.001 29.02C269.001 29.02 269.001 29.02 269.001 29.02C269.002 29.02 269.002 29.02 269.002 29.02C269.002 29.02 269.002 29.02 269.003 29.02C269.003 29.02 269.003 29.02 269.003 29.02C269.003 29.02 269.003 29.02 269.004 29.02C269.004 29.02 269.004 29.02 269.004 29.02C269.004 29.02 269.005 29.02 269.005 29.02C269.005 29.02 269.005 29.02 269.005 29.02C269.005 29.02 269.006 29.02 269.006 29.02C269.006 29.02 269.006 29.02 269.006 29.02C269.007 29.02 269.007 29.02 269.007 29.02C269.007 29.02 269.007 29.02 269.008 29.02C269.008 29.02 269.008 29.02 269.008 29.02C269.008 29.02 269.008 29.02 269.009 29.02C269.009 29.02 269.009 29.02 269.009 29.02C269.009 29.02 269.01 29.02 269.01 29.02C269.01 29.02 269.01 29.02 269.01 29.02C269.01 29.02 269.011 29.02 269.011 29.02C269.011 29.02 269.011 29.02 269.011 29.02C269.012 29.02 269.012 29.02 269.012 29.02C269.012 29.02 269.012 29.02 269.012 29.02C269.013 29.02 269.013 29.02 269.013 29.02C269.013 29.02 269.013 29.02 269.014 29.02C269.014 29.02 269.014 29.02 269.014 29.02C269.014 29.02 269.014 29.02 269.015 29.02C269.015 29.02 269.015 29.02 269.015 29.02C269.015 29.02 269.016 29.02 269.016 29.02C269.016 29.02 269.016 29.02 269.016 29.02C269.016 29.02 269.017 29.02 269.017 29.02C269.017 29.02 269.017 29.02 269.017 29.02C269.018 29.02 269.018 29.02 269.018 29.02C269.018 29.02 269.018 29.02 269.018 29.02C269.019 29.02 269.019 29.02 269.019 29.02C269.019 29.02 269.019 29.02 269.02 29.02C269.02 29.02 269.02 29.02 269.02 29.02C269.02 29.02 269.02 29.02 269.021 29.02C269.021 29.02 269.021 29.02 269.021 29.02C269.021 29.02 269.022 29.02 269.022 29.02C269.022 29.02 269.022 29.02 269.022 29.02C269.022 29.02 269.023 29.02 269.023 29.02C269.023 29.02 269.023 29.02 269.023 29.02C269.024 29.02 269.024 29.02 269.024 29.02C269.024 29.02 269.024 29.02 269.024 29.02C269.025 29.02 269.025 29.02 269.025 29.02C269.025 29.02 269.025 29.02 269.026 29.02C269.026 29.02 269.026 29.02 269.026 29.02C269.026 29.02 269.026 29.02 269.027 29.02C269.027 29.02 269.027 29.02 269.027 29.02C269.027 29.02 269.028 29.02 269.028 29.02C269.028 29.02 269.028 29.02 269.028 29.02C269.028 29.02 269.029 29.02 269.029 29.02C269.029 29.02 269.029 29.02 269.029 29.02C269.03 29.02 269.03 29.02 269.03 29.02C269.03 29.02 269.03 29.02 269.03 29.02C269.031 29.02 269.031 29.02 269.031 29.02C269.031 29.02 269.031 29.02 269.032 29.02C269.032 29.02 269.032 29.02 269.032 29.02C269.032 29.02 269.032 29.02 269.033 29.02C269.033 29.02 269.033 29.02 269.033 29.02C269.033 29.02 269.034 29.02 269.034 29.02C269.034 29.02 269.034 29.02 269.034 29.02C269.034 29.02 269.035 29.02 269.035 29.02C269.035 29.02 269.035 29.02 269.035 29.02C269.036 29.02 269.036 29.02 269.036 29.02C269.036 29.02 269.036 29.02 269.036 29.02C269.037 29.02 269.037 29.02 269.037 29.02C269.037 29.02 269.037 29.02 269.038 29.02C269.038 29.02 269.038 29.02 269.038 29.02C269.038 29.02 269.038 29.02 269.039 29.02C269.039 29.02 269.039 29.02 269.039 29.02C269.039 29.02 269.04 29.02 269.04 29.02C269.04 29.02 269.04 29.02 269.04 29.02C269.04 29.02 269.041 29.02 269.041 29.02C269.041 29.02 269.041 29.02 269.041 29.02C269.042 29.02 269.042 29.02 269.042 29.02C269.042 29.02 269.042 29.02 269.043 29.02C269.043 29.02 269.043 29.02 269.043 29.02C269.043 29.02 269.043 29.02 269.044 29.02C269.044 29.02 269.044 29.02 269.044 29.02C269.044 29.02 269.045 29.02 269.045 29.02C269.045 29.02 269.045 29.02 269.045 29.02C269.045 29.02 269.046 29.02 269.046 29.02C269.046 29.02 269.046 29.02 269.046 29.02C269.047 29.02 269.047 29.02 269.047 29.02C269.047 29.02 269.047 29.02 269.047 29.02C269.048 29.02 269.048 29.02 269.048 29.02C269.048 29.02 269.048 29.02 269.049 29.02C269.049 29.02 269.049 29.02 269.049 29.02C269.049 29.02 269.049 29.02 269.05 29.02C269.05 29.02 269.05 29.02 269.05 29.02C269.05 29.02 269.051 29.02 269.051 29.02C269.051 29.02 269.051 29.02 269.051 29.02C269.051 29.02 269.052 29.02 269.052 29.02C269.052 29.02 269.052 29.02 269.052 29.02C269.053 29.02 269.053 29.02 269.053 29.02C269.053 29.02 269.053 29.02 269.053 29.02C269.054 29.02 269.054 29.02 269.054 29.02C269.054 29.02 269.054 29.02 269.055 29.02C269.055 29.02 269.055 29.02 269.055 29.02C269.055 29.02 269.055 29.02 269.056 29.02C269.056 29.02 269.056 29.02 269.056 29.02C269.056 29.02 269.057 29.02 269.057 29.02C269.057 29.02 269.057 29.02 269.057 29.02C269.057 29.02 269.058 29.02 269.058 29.02C269.058 29.02 269.058 29.02 269.058 29.02C269.059 29.02 269.059 29.02 269.059 29.02C269.059 29.02 269.059 29.02 269.059 29.02C269.06 29.02 269.06 29.02 269.06 29.02V28.02ZM268.78 28.02C268.147 28.02 267.619 27.7796 267.168 27.2659L266.416 27.9261C267.048 28.6444 267.845 29.02 268.78 29.02V28.02ZM267.172 27.2715C266.74 26.7642 266.48 25.95 266.48 24.74H265.48C265.48 26.0687 265.762 27.1585 266.412 27.9205L267.172 27.2715ZM266.48 24.74C266.48 24.1347 266.597 23.58 266.828 23.0698L265.916 22.6582C265.624 23.3053 265.48 24.0013 265.48 24.74H266.48ZM266.83 23.0644C267.067 22.5225 267.387 22.0522 267.79 21.6496L267.082 20.9424C266.589 21.4358 266.2 22.0108 265.914 22.6636L266.83 23.0644ZM267.79 21.6496C268.195 21.2443 268.658 20.9242 269.182 20.6877L268.77 19.7763C268.137 20.0624 267.573 20.4517 267.082 20.9424L267.79 21.6496ZM269.176 20.6901C269.709 20.4572 270.275 20.34 270.88 20.34V19.34C270.141 19.34 269.438 19.4841 268.776 19.7739L269.176 20.6901ZM270.88 20.34C271.7 20.34 272.437 20.4793 273.098 20.7506L273.478 19.8254C272.683 19.4994 271.815 19.34 270.88 19.34V20.34ZM273.102 20.7522C273.792 21.028 274.368 21.4028 274.838 21.8736L275.546 21.1664C274.971 20.5918 274.278 20.1453 273.474 19.8238L273.102 20.7522ZM274.851 21.8859C275.339 22.3398 275.719 22.8871 275.991 23.534L276.913 23.146C276.588 22.3742 276.128 21.7082 275.533 21.1541L274.851 21.8859ZM275.993 23.5385C276.263 24.1624 276.4 24.841 276.4 25.58H277.4C277.4 24.7137 277.238 23.899 276.911 23.1415L275.993 23.5385ZM276.4 25.58C276.4 26.2752 276.256 27.0074 275.958 27.7798L276.89 28.1402C277.227 27.2699 277.4 26.4155 277.4 25.58H276.4ZM275.959 27.7762C275.656 28.5414 275.245 29.3122 274.721 30.0884L275.551 30.6476C276.11 29.8185 276.557 28.9839 276.889 28.1438L275.959 27.7762ZM274.717 30.0952C274.208 30.8766 273.625 31.6416 272.968 32.3901L273.72 33.0499C274.407 32.2677 275.018 31.4648 275.555 30.6408L274.717 30.0952ZM272.968 32.3901C272.306 33.1444 271.626 33.852 270.928 34.513L271.616 35.239C272.337 34.556 273.038 33.8263 273.72 33.0499L272.968 32.3901ZM270.928 34.513C270.224 35.1801 269.539 35.8001 268.874 36.3731L269.526 37.1309C270.205 36.5466 270.901 35.9159 271.616 35.239L270.928 34.513ZM268.88 36.3679C268.214 36.9227 267.617 37.3913 267.087 37.775L267.673 38.585C268.226 38.1847 268.842 37.7013 269.52 37.1361L268.88 36.3679ZM267.38 38.68H276.2V37.68H267.38V38.68ZM276.689 38.283L277.249 35.623L276.271 35.417L275.711 38.077L276.689 38.283ZM276.76 36.02H277.18V35.02H276.76V36.02ZM276.68 35.52V40H277.68V35.52H276.68ZM277.18 39.5H264.86V40.5H277.18V39.5ZM265.228 40.3385C266.515 38.9396 267.727 37.6341 268.865 36.4222L268.135 35.7378C266.995 36.9525 265.781 38.2604 264.492 39.6615L265.228 40.3385ZM268.865 36.4222C270.014 35.1969 271.017 34.0058 271.87 32.8488L271.066 32.2552C270.239 33.3755 269.263 34.5364 268.135 35.7378L268.865 36.4222ZM271.87 32.8499C272.747 31.6672 273.44 30.4956 273.943 29.3348L273.025 28.9372C272.558 30.0164 271.906 31.1221 271.066 32.2541L271.87 32.8499ZM273.941 29.3384C274.473 28.1367 274.74 26.8825 274.74 25.58H273.74C273.74 26.7415 273.503 27.858 273.027 28.9336L273.941 29.3384ZM274.74 25.58C274.74 24.6338 274.644 23.801 274.441 23.0906L273.479 23.3654C273.65 23.9616 273.74 24.6969 273.74 25.58H274.74ZM274.441 23.0906C274.242 22.3942 273.966 21.8 273.6 21.3263L272.808 21.9377C273.077 22.2853 273.305 22.7551 273.479 23.3654L274.441 23.0906ZM273.606 21.3348C273.241 20.8402 272.788 20.4713 272.248 20.2465L271.864 21.1695C272.22 21.318 272.533 21.5651 272.802 21.9292L273.606 21.3348ZM272.264 20.2535C271.747 20.0164 271.19 19.9 270.6 19.9V20.9C271.055 20.9 271.469 20.989 271.848 21.1625L272.264 20.2535Z" fill="#004987"/>
</svg>
