<svg width="304" height="63" viewBox="0 0 304 63" fill="none" xmlns="http://www.w3.org/2000/svg">
<circle cx="31.5" cy="31.5" r="30" stroke="#004987" stroke-width="3"/>
<circle cx="272.5" cy="31.5" r="30.75" stroke="#004987" stroke-width="1.5"/>
<line x1="63" y1="31.5" x2="241" y2="31.5" stroke="#004987"/>
<path d="M32.46 39.3L34.14 39.72V40H28.4V39.72L30.08 39.3V21.52H27.28V21.1L32.46 19.98V39.3Z" fill="#004987"/>
<path d="M32.46 39.3H31.96V39.6904L32.3387 39.7851L32.46 39.3ZM34.14 39.72H34.64V39.3296L34.2613 39.2349L34.14 39.72ZM34.14 40V40.5H34.64V40H34.14ZM28.4 40H27.9V40.5H28.4V40ZM28.4 39.72L28.2787 39.2349L27.9 39.3296V39.72H28.4ZM30.08 39.3L30.2013 39.7851L30.58 39.6904V39.3H30.08ZM30.08 21.52H30.58V21.02H30.08V21.52ZM27.28 21.52H26.78V22.02H27.28V21.52ZM27.28 21.1L27.1743 20.6113L26.78 20.6966V21.1H27.28ZM32.46 19.98H32.96V19.3603L32.3543 19.4913L32.46 19.98ZM32.3387 39.7851L34.0187 40.2051L34.2613 39.2349L32.5813 38.8149L32.3387 39.7851ZM33.64 39.72V40H34.64V39.72H33.64ZM34.14 39.5H28.4V40.5H34.14V39.5ZM28.9 40V39.72H27.9V40H28.9ZM28.5213 40.2051L30.2013 39.7851L29.9587 38.8149L28.2787 39.2349L28.5213 40.2051ZM30.58 39.3V21.52H29.58V39.3H30.58ZM30.08 21.02H27.28V22.02H30.08V21.02ZM27.78 21.52V21.1H26.78V21.52H27.78ZM27.3857 21.5887L32.5657 20.4687L32.3543 19.4913L27.1743 20.6113L27.3857 21.5887ZM31.96 19.98V39.3H32.96V19.98H31.96Z" fill="#004987"/>
<path d="M270.6 20.4C270.077 20.4 269.573 20.512 269.088 20.736C268.603 20.96 268.164 21.268 267.772 21.66C267.399 22.0333 267.1 22.4627 266.876 22.948C266.652 23.4333 266.54 23.9373 266.54 24.46C266.54 24.9453 266.727 25.3467 267.1 25.664C267.492 25.9813 268.145 26.14 269.06 26.14L269.62 28.38C269.545 28.4173 269.461 28.4453 269.368 28.464C269.275 28.4827 269.172 28.5013 269.06 28.52C268.967 28.52 268.873 28.52 268.78 28.52C267.996 28.52 267.333 28.212 266.792 27.596C266.251 26.9613 265.98 26.0093 265.98 24.74C265.98 24.068 266.111 23.4427 266.372 22.864C266.633 22.2667 266.988 21.744 267.436 21.296C267.884 20.848 268.397 20.4933 268.976 20.232C269.573 19.9707 270.208 19.84 270.88 19.84C271.757 19.84 272.56 19.9893 273.288 20.288C274.035 20.5867 274.669 20.9973 275.192 21.52C275.733 22.024 276.153 22.6307 276.452 23.34C276.751 24.0307 276.9 24.7773 276.9 25.58C276.9 26.3453 276.741 27.1387 276.424 27.96C276.107 28.7627 275.677 29.5653 275.136 30.368C274.613 31.1707 274.016 31.9547 273.344 32.72C272.672 33.4853 271.981 34.204 271.272 34.876C270.563 35.548 269.872 36.1733 269.2 36.752C268.528 37.312 267.921 37.788 267.38 38.18H276.2L276.76 35.52H277.18V40H264.86C266.148 38.6 267.361 37.2933 268.5 36.08C269.639 34.8667 270.628 33.6907 271.468 32.552C272.327 31.3947 272.999 30.256 273.484 29.136C273.988 27.9973 274.24 26.812 274.24 25.58C274.24 24.6653 274.147 23.8813 273.96 23.228C273.773 22.5747 273.521 22.0427 273.204 21.632C272.887 21.2027 272.504 20.8947 272.056 20.708C271.608 20.5027 271.123 20.4 270.6 20.4Z" fill="#004987"/>
</svg>
